<?xml version="1.0" encoding="UTF-8" standalone="no"?>
<!-- Created with Inkscape (http://www.inkscape.org/) -->

<svg
   xmlns:dc="http://purl.org/dc/elements/1.1/"
   xmlns:cc="http://creativecommons.org/ns#"
   xmlns:rdf="http://www.w3.org/1999/02/22-rdf-syntax-ns#"
   xmlns:svg="http://www.w3.org/2000/svg"
   xmlns="http://www.w3.org/2000/svg"
   xmlns:inkscape="http://www.inkscape.org/namespaces/inkscape"
   version="1.1"
   width="526.25"
   height="200"
   id="svg2"
   xml:space="preserve"><metadata
     id="metadata8"><rdf:RDF><cc:Work
         rdf:about=""><dc:format>image/svg+xml</dc:format><dc:type
           rdf:resource="http://purl.org/dc/dcmitype/StillImage" /></cc:Work></rdf:RDF></metadata><defs
     id="defs6" /><g
     transform="matrix(1.25,0,0,-1.25,0,200)"
     id="g10"><g
       transform="scale(0.1,0.1)"
       id="g12"><path
         d="m 1158.52,213.52 c 1.99,2.652 4.14,5.308 6.48,7.96 l -2.5,42.5 c -5.98,2.04 -12.15,4.34 -18.48,7.04 -14.33,5.968 -27.03,13.16 -38,21.48 -16.68,11.988 -29.18,26.48 -37.5,43.52 -6.02,11.64 -9.85,23.32 -11.53,35 -0.97,6.32 -1.13,12.96 -0.47,20 0,3.628 0.32,7.3 0.98,10.968 0.35,3.364 1.33,7.66 3.01,13.012 0.66,1.68 1.17,3.16 1.48,4.488 0.35,0.352 0.67,0.864 1.02,1.532 0,0.66 0.35,1.48 1.01,2.5 0.67,1.64 1.33,3.32 2,5 1.64,2.96 3.32,5.968 5,8.98 3.98,6.02 7.81,11.172 11.48,15.512 6.68,6.988 14.18,13.468 22.5,19.488 1.02,0.66 1.99,1.328 3.01,1.988 -5.35,1.992 -11.68,4.492 -18.99,7.5 -2.03,1.024 -3.86,1.992 -5.5,3.012 l -1.02,0.512 c -1.99,0.968 -4.14,2.148 -6.48,3.468 l -1.02,0.508 c -3.01,1.992 -5.66,4.032 -8.01,6.024 -0.66,0.308 -1.33,0.66 -1.99,0.968 l -3.01,3.008 -1.99,1.532 c -0.66,0.308 -1.17,0.66 -1.48,0.968 l -1.53,1.992 c -6.64,5 -13.63,14.692 -20.97,29.032 -0.36,0.308 -0.51,0.508 -0.51,0.508 -3.01,6.32 -5.51,15.152 -7.5,26.48 -0.35,2.34 -0.51,5.16 -0.51,8.52 l 0,1.48 c -0.66,9.34 -0.16,18.52 1.52,27.5 2,13.672 6.49,26.48 13.48,38.52 6.68,11.64 15.35,21.992 26.02,30.968 8,6.684 16.99,12.5 26.99,17.5 16.99,7.352 31.17,11.684 42.5,13.012 l -1.02,16.988 c -3.32,0.672 -6.48,1.532 -9.49,2.5 -16.64,3.672 -33.83,8.172 -51.48,13.524 -60,15.66 -99.5,39.488 -118.52,71.476 -19.34,31.992 -26.988,59.852 -23.012,83.524 3.012,52.34 18.364,91.828 46.024,118.468 28.008,27.04 53.978,43.17 78.008,48.52 5.31,1.99 10.31,3.83 15,5.51 12.34,3.67 25.82,7.15 40.5,10.51 0.98,0 2,0.15 2.97,0.46 l -1.99,34.54 c -23.32,3.32 -42.5,13.47 -57.5,30.46 -31.64,-6.64 -58.16,-9.64 -79.488,-8.98 -10.672,0 -16.492,0.16 -17.5,0.51 l -1.024,0 c -57.648,8.67 -92.808,24.33 -105.468,46.99 -13,22.34 -18.36,35.66 -16.008,40 0.347,0.66 0.508,1.48 0.508,2.5 5.66,43.98 23.671,74.49 53.98,91.48 30.352,17.04 58.359,25.36 84.02,25 3.992,0.67 7.968,1.02 12,1.02 l 31.48,-0.51 c 3.36,33.01 18.01,55.86 44.02,68.52 l -962.5,0 C 39.8398,1394.84 6.01953,1361.02 0,1298.98 L 0,287.5 C 5.66016,225.512 39.4883,191.48 101.52,185.512 l 1042,0 c 3.67,9.648 8.67,18.976 15,28.008"
         inkscape:connector-curvature="0"
         id="path14"
         style="fill:#265999;fill-opacity:1;fill-rule:evenodd;stroke:none" /><path
         d="m 179.02,643.98 c -1.68,20.36 3.48,47.86 15.468,82.5 12.032,34.692 40,64.032 84.032,88.008 1.992,1.024 4.14,1.684 6.48,1.992 1.02,0.36 2.852,0.508 5.512,0.508 19.328,1.332 33.008,-11.828 41.008,-39.488 l 0,-3.98 c -0.661,-2.7 0.82,-14.032 4.5,-34.032 16.64,20.352 27.652,38.012 33,53.012 2.968,8.32 8.832,13.52 17.5,15.512 1.64,0.66 3.48,0.968 5.468,0.968 6.684,0 12.352,-2.14 17.032,-6.48 11.332,-2.66 18.48,-26.988 21.492,-73.012 -0.352,-0.66 -0.512,-1.476 -0.512,-2.5 -2.34,-11.636 -2.5,-20.816 -0.512,-27.5 15.672,-1.988 33.672,-7.5 54.032,-16.476 50,40 76.832,56.988 80.5,50.968 93.64,11.68 152.968,27.192 177.968,46.532 25,18.976 35.864,29.488 32.5,31.476 39.692,10.672 65.203,25 76.532,43.012 11.32,17.66 16.48,27.5 15.5,29.488 25.32,17.66 35.98,36.332 32,56.024 -4.032,20 -7.348,30.816 -10,32.5 -31.329,7.648 -66.02,13.008 -104.032,15.968 -37.968,3.008 -58.629,4.34 -61.988,4.032 -93.98,20.308 -136.84,35.968 -128.48,46.988 -40,60.35 -61.68,86.02 -65,76.99 -87.692,26.99 -157.848,36.68 -210.5,29.03 -53.008,-7.7 -80.161,-13.17 -81.532,-16.53 -20.66,3.67 -36.328,1.33 -46.988,-6.99 -10.98,-8.01 -16.48,-12.85 -16.48,-14.49 -40.668,-57.35 -67.192,-90.67 -79.5005,-100 -35,-41.682 -43.6679,-68.522 -26.0078,-80.51 17.3399,-12.34 28.668,-17.852 33.9763,-16.48 C 87.6602,883.012 80.1602,867.66 79.4883,865 53.1602,811.68 26.6797,772.852 0,748.52 L 0,570 c 61.3281,9.648 111.328,26.988 150,51.988 5.352,5.352 15,12.66 29.02,21.992"
         inkscape:connector-curvature="0"
         id="path16"
         style="fill:#ffffff;fill-opacity:1;fill-rule:evenodd;stroke:none" /><path
         d="m 476.52,408.52 c 46.64,3.628 76.332,13.32 88.992,28.98 12.648,16.02 18.16,25 16.476,26.988 14.692,26.024 19.692,43.012 15,51.024 10,10.968 14.184,17.5 12.5,19.488 -19.328,18.672 -32.808,28.32 -40.468,28.98 -28.36,13.008 -46.168,28.36 -53.508,46.02 -7.352,17.66 -10.512,27.34 -9.492,28.98 -31.329,23.68 -60.508,36.18 -87.5,37.5 -10.668,7.7 -15.668,18.68 -15,33.008 0.66,14.032 1.48,21.84 2.5,23.524 -2.348,34.328 -7,51.476 -14.032,51.476 -19.648,-39.328 -40.468,-68.976 -62.5,-88.976 -18.976,40.66 -26.476,66.828 -22.5,78.468 -7.648,16.68 -13.629,22.86 -17.968,18.52 -47.692,-28.32 -74.329,-61.68 -80,-100 -6.008,-38.32 -7.5,-59.34 -4.532,-63.012 -20.308,-11.328 -33.16,-20 -38.468,-25.968 C 120,573.52 64.6914,553.98 0,545 L 0,287.5 C 5.66016,225.512 39.4883,191.68 101.52,186.02 l 107.968,0 c 35,83.32 86.371,141.64 154.032,175 67.652,32.96 105.308,48.82 113,47.5"
         inkscape:connector-curvature="0"
         id="path18"
         style="fill:#ffffff;fill-opacity:1;fill-rule:evenodd;stroke:none" /><path
         d="m 1415,1105.51 0,-1.02 c -0.31,-0.31 -1.17,-0.97 -2.5,-1.99 -5,-3.67 -14.34,-7.15 -28.01,-10.51 -3.63,-0.66 -6.83,-1.17 -9.49,-1.48 l -1.48,-0.51 -5.51,0 c -11.99,0.35 -23.99,0.35 -36.02,0 -6.33,-0.35 -12.65,-0.66 -18.98,-1.02 l 1.01,14.54 c 28.32,5 50,20 65,45 10.67,-2.35 18.83,-5.67 24.5,-10 4.33,-3.01 7.34,-7.04 8.98,-12.04 0.66,-2.3 1.33,-6.32 1.99,-11.99 0.35,-3.01 0.51,-5.66 0.51,-8.01 l 0,-0.97 m 175,21.48 c -1.33,19.34 -4.65,37.35 -10,54.03 -5.98,19.33 -14.84,37.3 -26.48,53.98 -11.33,16.68 -25.16,31.33 -41.53,43.98 -14.65,11.02 -30.82,20.36 -48.47,28.01 -15.36,6.68 -31.53,11.99 -48.52,16.02 -1.33,0.31 -2.66,0.51 -3.98,0.51 -1.68,40.31 -18.83,66.83 -51.53,79.49 -5.31,1.64 -10.82,2.65 -16.48,3.01 -1.33,15.66 -4.49,29.8 -9.49,42.5 l 0.97,18.98 c 0.35,4.65 0.35,9.18 0,13.52 -10,69.64 -50,107.5 -120,113.47 l -6.99,0 c -33.01,-2.34 -60.66,-15.66 -83.01,-40 -21.64,-25 -31.83,-53.98 -30.47,-86.99 l 3.48,-56.48 c -0.31,-1.68 -0.51,-3.36 -0.51,-5 l -6.48,0 c -6.68,0 -13.32,-1.02 -20,-3.01 -30.35,-11.33 -47.35,-35 -51.02,-71.02 l -31.478,0 c -3.992,0 -7.852,-0.31 -11.492,-0.97 -26.008,0.31 -54.02,-8.01 -84.02,-25 -30.309,-16.68 -48.48,-47.19 -54.488,-91.53 l 0,-2.5 c -2.352,-3.98 2.847,-17.34 15.508,-40 13,-22.34 48.32,-37.81 105.968,-46.48 L 960,1125 c 1.328,0 7.191,-0.16 17.5,-0.51 21.68,-0.66 48.36,2.5 80,9.49 15,-17.3 34.18,-27.5 57.5,-30.46 l 1.52,-34.54 c -1.01,-0.31 -2.03,-0.66 -3,-0.97 -14.34,-3.01 -27.86,-6.53 -40.51,-10.51 -4.65,-1.33 -9.65,-3.01 -15,-5 -23.99,-5.66 -49.85,-21.84 -77.498,-48.52 -28.012,-26.64 -43.321,-66.128 -46.024,-118.468 -3.976,-23.672 3.672,-51.532 23.012,-83.524 19.02,-32.34 58.52,-56.328 118.52,-71.988 17.65,-5.352 34.64,-9.84 50.97,-13.52 3.36,-0.66 6.68,-1.32 10,-1.992 l 0.51,-16.988 c -11.33,-1.328 -25.31,-5.82 -41.99,-13.52 -10,-4.64 -19.18,-10.46 -27.5,-17.5 -10.35,-8.628 -18.83,-18.82 -25.51,-30.46 -6.99,-12.348 -11.64,-25.2 -13.98,-38.52 -1.33,-8.98 -1.68,-18.32 -1.02,-28.012 -0.31,-0.308 -0.31,-0.816 0,-1.476 0,-3.364 0.16,-6.024 0.51,-8.012 1.68,-11.68 4.18,-20.512 7.5,-26.48 l 0,-0.508 c 7.65,-14.34 14.65,-24.184 21.01,-29.492 l 2,-1.532 3,-3.008 3.48,-2.5 c 0.66,-0.66 1.17,-1.128 1.52,-1.48 2.66,-1.988 5.47,-3.828 8.48,-5.512 l 1.02,-0.508 c 1.99,-1.32 4.14,-2.652 6.48,-3.98 l 0.51,-0.512 c 1.99,-0.66 3.98,-1.476 6.01,-2.5 7,-3.316 13.32,-5.816 18.99,-7.5 -1.02,-0.66 -1.99,-1.476 -3.01,-2.5 -8.32,-5.66 -15.82,-12.148 -22.5,-19.488 -3.98,-4.34 -7.81,-9.488 -11.48,-15.512 -2,-3.008 -3.68,-5.968 -5,-8.976 -1.02,-1.332 -1.84,-2.852 -2.5,-4.492 -0.36,-1.02 -0.67,-1.84 -1.02,-2.5 -0.31,-1.02 -0.51,-1.68 -0.51,-2.04 -0.66,-1.32 -1.13,-2.652 -1.48,-3.98 -1.68,-5.352 -2.66,-9.648 -3.01,-13.012 -0.66,-3.668 -1.17,-7.34 -1.48,-10.968 -0.36,-7.04 0,-13.872 0.97,-20.508 1.68,-11.684 5.35,-23.364 11.02,-35 8.67,-16.684 21.17,-31.172 37.5,-43.524 11.33,-8.008 24.18,-15 38.51,-20.968 6.33,-2.7 12.31,-5 17.97,-7.04 l 2.5,-42.5 c -1.99,-2.652 -3.98,-5.46 -5.97,-8.468 -7.66,-11.024 -13.52,-22.192 -17.5,-33.524 -5,-15.308 -6.68,-30.148 -5,-44.488 1.64,-15.66 6.99,-30.16 15.97,-43.5195 5.67,-7.961 12.85,-15.6602 21.53,-22.961 L 1174.49,47.5 C 1177.5,25.5117 1190,13.0117 1211.99,10 l 2.5,0 c 14.69,0.6602 26.02,6.8398 34.03,18.5195 3.32,-1.0195 6.83,-2.039 10.5,-3.0078 L 1260.51,25 c 3.67,-1.3281 7.5,-1.9883 11.48,-1.9883 18.01,0.9688 30.67,9.6485 38.01,25.9688 3.67,10.3593 3.36,20.5078 -0.98,30.5078 -4.33,10.3515 -11.83,17.5 -22.5,21.5317 -11.01,4.332 -20.5,8.628 -28.51,12.96 l 3.98,71.532 c 3.67,3.668 7.03,7.34 10,10.968 8.01,9.032 15.51,22.348 22.5,40 3.36,10.668 5,20.86 5,30.508 0,12.66 -2.81,24.692 -8.47,36.024 -4.69,10 -11.33,18.976 -20,26.988 -0.36,0 -0.51,0.16 -0.51,0.512 l 3.51,64.488 c 2,0.352 3.99,0.66 5.98,1.02 1.33,0 2.85,0.152 4.49,0.46 1.02,0.36 2.03,0.508 3.01,0.508 1.99,0.672 3.83,1.172 5.51,1.532 3.32,0.66 6.17,1.48 8.51,2.5 l 0.47,0 c 3.67,1.32 6.68,2.5 9.03,3.468 11.32,5 21.83,12.192 31.48,21.532 4.69,5 8.67,10 11.99,15 1.68,2.652 3.17,5.308 4.53,7.96 0.98,1.68 2,3.52 2.97,5.508 0.35,0.672 0.67,1.532 1.02,2.5 0.35,1.024 0.66,1.84 1.01,2.5 l 0.98,3.012 c 0.66,1.68 1.17,3.52 1.52,5.512 2,6.636 2.82,15.308 2.5,25.968 -1.01,10.36 -3.51,20 -7.5,29.032 -3.67,8.008 -8.36,15.308 -14.02,21.988 19.34,3.672 37.19,8.52 53.52,14.488 13.32,5.352 25.5,11.532 36.48,18.524 6.02,3.668 13.01,8.976 21.02,15.968 4.33,4.032 8.47,8.52 12.5,13.52 1.99,2.34 4.49,5.82 7.5,10.512 l 0.5,0.968 c 0.98,1.372 1.64,2.5 2,3.52 0.66,1.328 1.17,2.34 1.48,3.012 0.66,0.968 1.17,1.828 1.52,2.5 0.67,1.636 1.33,3.316 2,5 3,7.34 5.5,15.148 7.5,23.468 1.64,8.008 2.81,16.02 3.47,24.032 1.68,18.316 0,35.968 -5,53.008 -5.31,18.32 -13.98,35 -25.97,50 -10,12.96 -22.35,24.14 -37,33.468 -27.03,16.024 -50.5,25.864 -70.5,29.492 -10,2.7 -20.51,4.692 -31.53,6.02 -2.65,0.66 -5.31,1.172 -7.97,1.48 l -4.53,0.508 -14.49,1.532 3.52,60 c 10.31,0.66 20.82,0.968 31.48,0.968 l 49.49,0 3.01,0.512 c 2.34,0 4.69,0.16 6.99,0.512 7.7,0.66 15.67,1.828 24.03,3.468 16.32,3.36 31.99,7.86 46.99,13.52 18.32,6.988 34.65,15.66 48.98,26.02 18.36,12.652 33.52,27.808 45.51,45.46 13.01,19.34 21.84,40.2 26.52,62.5 1.33,5.36 2.31,10.86 2.97,16.53 l 0,1.48 c 0.35,1.99 0.51,4.18 0.51,6.53 l 0.51,4.49 0,3.47 c 0.35,7.04 0.15,15.51 -0.51,25.51"
         inkscape:connector-curvature="0"
         id="path20"
         style="fill:#ffffff;fill-opacity:1;fill-rule:evenodd;stroke:none" /><path
         d="m 1267.5,1316.02 c 6.68,0 12.85,1.64 18.52,5 -2.35,-7.35 -3.52,-14.69 -3.52,-22.04 -3.32,5 -8.32,10.67 -15,17.04 m -60.98,18.47 c 5.98,8.36 10.47,18.52 13.48,30.51 3.67,-13.32 9.02,-24.34 16.02,-33.01 -6.68,1.99 -14.34,3.01 -23.01,3.01 -2.35,0 -4.49,-0.16 -6.49,-0.51 m -59.53,-30.51 c -0.66,7.04 -1.99,14.03 -3.98,21.02 -1.68,4.34 -3.32,8.52 -5,12.5 6.33,-9.65 13.98,-16.17 23.01,-19.49 -6.02,-4.69 -10.67,-9.34 -14.03,-14.03 m 237.5,-10 c 10.67,42.7 1.68,70.67 -26.99,84.03 -3.67,1.33 -7.5,1.99 -11.48,1.99 -11.02,-0.35 -21.33,-4.34 -31.02,-11.99 2.34,9.33 3.52,19.33 3.52,30 -2.66,50.66 -19.69,78.01 -51.02,81.99 -23.01,-1.68 -38.83,-18.01 -47.5,-48.98 -8.67,30.97 -24.34,47.3 -46.99,48.98 -31.68,-3.98 -48.67,-31.33 -51.02,-81.99 0,-19.03 3.17,-35.51 9.53,-49.49 -13,20 -28.86,30.46 -47.5,31.48 -4.02,0 -8,-0.66 -12.03,-1.99 -28.63,-13.01 -37.5,-41.02 -26.48,-84.03 7.34,-22.3 18.83,-38.32 34.49,-47.96 -10.66,-8.01 -18.01,-17.86 -21.99,-29.54 -3.99,-30 -2.35,-48.47 5,-55.46 13.01,-24.69 33.32,-37.19 61.01,-37.5 20,1.99 32.66,4.64 37.97,7.96 30.35,8.36 47.35,11.68 51.02,10 3.32,1.68 20.35,-1.64 51.01,-10 5,-3.32 17.66,-5.97 37.97,-7.96 27.7,0.66 47.85,13.16 60.51,37.5 7.66,6.99 9.49,25.46 5.51,55.46 -3.99,11.02 -10.82,20.36 -20.51,28.01 16.68,9.69 29.02,26.17 36.99,49.49"
         inkscape:connector-curvature="0"
         id="path22"
         style="fill:#ffffff;fill-opacity:1;fill-rule:evenodd;stroke:none" /><path
         d="m 1319.49,1243.01 c -8.32,-3.36 -24.33,10.66 -47.97,41.99 2.97,11.33 -16.52,22.66 -58.51,33.98 -41.68,-11.32 -61.17,-22.65 -58.52,-33.98 -23.63,-31.33 -39.49,-45.35 -47.5,-41.99 -25.97,-13.67 -37.97,-29.03 -35.97,-46.02 1.99,-17.34 4.14,-26.83 6.48,-28.47 13.67,-21.37 29.69,-30.86 48.01,-28.52 18.67,2.66 28.83,5 30.51,6.99 34.33,9.34 53.32,13.01 56.99,11.02 3.67,1.99 22.65,-1.68 56.99,-11.02 1.68,-1.99 11.84,-4.33 30.51,-6.99 18.32,-2.34 34.33,7.15 48.01,28.52 2.34,1.64 4.49,10.97 6.48,27.96 1.99,17.35 -9.84,32.86 -35.51,46.53"
         inkscape:connector-curvature="0"
         id="path24"
         style="fill:#b82b2b;fill-opacity:1;fill-rule:evenodd;stroke:none" /><path
         d="m 1173.01,1332.5 c 21.33,3.67 33.01,25.51 35,65.51 -1.99,40.31 -13.67,62.34 -35,65.97 -21.33,-3.63 -33.01,-25.66 -35,-65.97 1.99,-40 13.67,-61.84 35,-65.51"
         inkscape:connector-curvature="0"
         id="path26"
         style="fill:#9e2128;fill-opacity:1;fill-rule:evenodd;stroke:none" /><path
         d="m 1267.5,1332.5 c 21.33,3.67 33.01,25.51 35,65.51 -1.99,40.31 -13.67,62.34 -35,65.97 -21.33,-3.63 -33.01,-25.66 -35,-65.97 1.99,-40 13.67,-61.84 35,-65.51"
         inkscape:connector-curvature="0"
         id="path28"
         style="fill:#b82b2b;fill-opacity:1;fill-rule:evenodd;stroke:none" /><path
         d="m 1353.01,1363.01 c -21.33,3.32 -38.17,-10.86 -50.51,-42.5 -8.32,-33.36 -2.81,-54.69 16.52,-64.03 21.33,-3.32 37.97,10.86 50,42.5 8.64,33.01 3.32,54.34 -16.01,64.03"
         inkscape:connector-curvature="0"
         id="path30"
         style="fill:#b82b2b;fill-opacity:1;fill-rule:evenodd;stroke:none" /><path
         d="m 1111.52,1256.48 c 18.99,9.34 24.34,30.67 15.98,64.03 -11.99,31.64 -28.67,45.82 -50,42.5 -19.34,-9.69 -24.84,-31.02 -16.48,-64.03 12.34,-31.64 29.14,-45.82 50.5,-42.5"
         inkscape:connector-curvature="0"
         id="path32"
         style="fill:#b82b2b;fill-opacity:1;fill-rule:evenodd;stroke:none" /><path
         d="m 1143.01,1325 c 2.34,-6.68 3.83,-13.52 4.49,-20.51 3.36,4.34 7.85,9.03 13.52,14.03 -9.03,3.32 -16.68,9.8 -23.01,19.49 1.99,-4.03 3.67,-8.36 5,-13.01"
         inkscape:connector-curvature="0"
         id="path34"
         style="fill:#4a6199;fill-opacity:1;fill-rule:evenodd;stroke:none" /><path
         d="m 1206.52,1335 6.49,0 c 8.67,0 16.33,-0.82 23.01,-2.5 -7,8.32 -12.19,19.18 -15.51,32.5 -3.32,-11.99 -8.01,-21.99 -13.99,-30"
         inkscape:connector-curvature="0"
         id="path36"
         style="fill:#4a6199;fill-opacity:1;fill-rule:evenodd;stroke:none" /><path
         d="m 1131.02,1350 c 0.31,-0.35 0.5,-0.66 0.5,-1.02 0,0.67 -0.19,1.18 -0.5,1.53 l 0,-0.51"
         inkscape:connector-curvature="0"
         id="path38"
         style="fill:#4a6199;fill-opacity:1;fill-rule:evenodd;stroke:none" /><path
         d="m 1282.5,1298.98 c 0.35,7.35 1.52,14.85 3.52,22.5 -5.67,-3.32 -11.84,-5 -18.52,-5 6.99,-6.64 11.99,-12.5 15,-17.5"
         inkscape:connector-curvature="0"
         id="path40"
         style="fill:#4a6199;fill-opacity:1;fill-rule:evenodd;stroke:none" /><path
         d="m 936.52,1228.01 c -10,0.66 -15.5,4.49 -16.52,11.48 1.02,6.99 6.52,10.86 16.52,11.53 9.652,-0.67 15,-4.54 15.98,-11.53 -0.98,-6.99 -6.328,-10.82 -15.98,-11.48 m 143.99,18.01 c -16.02,10 -27.66,25.97 -35,47.96 -0.67,2.7 -1.33,5.2 -1.99,7.5 l -54.032,0.51 -0.968,0 c -3.36,0 -6.532,-0.31 -9.5,-0.97 -9.02,1.32 -28,-3.01 -57.032,-13.01 -28.976,-10.35 -46.828,-35.51 -53.468,-75.51 -2,-1.99 1.992,-10.35 11.992,-25 9.648,-14.65 36.988,-25.35 81.988,-31.99 8.672,-3.67 41.52,0 98.52,10.97 -6.68,11.02 -7.66,27.7 -3.01,50 4.33,11.68 11.83,21.53 22.5,29.54"
         inkscape:connector-curvature="0"
         id="path42"
         style="fill:#4a6199;fill-opacity:1;fill-rule:evenodd;stroke:none" /><path
         d="m 1126.52,1433.01 c 8.99,30 24.65,45.82 47,47.5 22.65,-1.68 38.32,-18.01 46.99,-49.03 8.67,31.02 24.33,47.35 46.99,49.03 14.69,-0.67 26.84,-8.52 36.52,-23.52 l 0.47,12.5 c 0.35,3.36 0.35,6.68 0,10 -8.32,54.69 -40,83.01 -95,85 -54.65,-8.32 -82.97,-40 -85,-95 l 2.03,-36.48"
         inkscape:connector-curvature="0"
         id="path44"
         style="fill:#4a6199;fill-opacity:1;fill-rule:evenodd;stroke:none" /><path
         d="m 1374.02,1060 c -0.66,0 -0.66,0 0,0 m -88,-337.5 11.99,-1.02 2.5,-0.46 2.5,0 c 1.68,-0.36 3.32,-0.508 5,-0.508 6.68,-1.024 13.01,-2.192 18.98,-3.524 5.67,-1.328 10.86,-2.808 15.51,-4.488 15.66,-10 21.33,-15.82 16.99,-17.5 -2.97,-8.98 -8.47,-14.18 -16.48,-15.512 -8.32,-2.648 -17.35,-4.84 -26.99,-6.476 -13.68,-1.992 -28.01,-3.524 -43.01,-4.492 -4.65,0 -9.34,-0.2 -13.99,-0.508 l 2.97,56.988 c 8.01,-1.02 16.02,-1.84 24.03,-2.5 m -12.5,-228.98 0,0.46 0.5,0 0,-0.46 c -0.35,0 -0.5,-0.2 -0.5,-0.508 l 0,0.508 m -115,355.46 c -15,3.68 -29.69,7.86 -44.03,12.5 -2.97,1.02 -5.97,2.04 -8.98,3.008 -12.35,3.364 -20.35,12.352 -23.99,26.992 -1.01,1.372 0.67,6.68 5,16.02 1.33,1.68 2.82,3.32 4.5,5 0.97,1.02 1.99,1.988 3,3.012 2.31,1.636 5,3.16 7.97,4.488 4.03,1.68 8.17,3.16 12.5,4.488 8.67,2.66 18.01,5 28.01,6.992 4.02,0.668 8.01,1.372 11.99,2.04 l 5,-84.54 -0.97,0 M 1559.49,1125 c -0.66,15.35 -3.47,31.02 -8.47,46.99 -5,16.02 -12.5,31.33 -22.5,46.02 -10,14.33 -21.84,26.64 -35.51,36.99 -13.32,10.35 -27.15,18.52 -41.49,24.49 -14.33,6.33 -28.86,11.02 -43.51,14.03 -6.99,1.64 -14.18,2.96 -21.49,3.98 l -1.01,0 c -0.35,-1.02 -0.67,-2.15 -1.02,-3.52 -7.97,-23.32 -20.31,-39.64 -36.99,-48.98 9.69,-8.01 16.33,-17.5 20,-28.52 4.02,-13.32 4.69,-25.31 1.99,-35.97 l 2.5,0 c 3.67,-0.35 7.5,-1.02 11.53,-1.99 15.97,-3.36 28.82,-8.68 38.47,-16.02 9.03,-6.33 15.35,-15 19.03,-26.02 1.64,-5.66 2.81,-12.14 3.47,-19.49 0.35,-3.67 0.51,-7.65 0.51,-11.99 l 0,-2.5 c -0.31,-1.33 -0.51,-2.5 -0.51,-3.52 -0.97,-3.98 -2.5,-7.5 -4.49,-10.46 -1.64,-3.01 -4.84,-6.37 -9.49,-10 -9.65,-7.04 -23.17,-12.35 -40.51,-16.02 -3.98,-0.66 -8.01,-1.33 -11.99,-1.99 l -2.5,-0.51 -43.01,0 c -16.99,-0.66 -34.14,-1.48 -51.48,-2.5 l 3.47,68.01 c -10.97,2.65 -17.97,4.84 -20.97,6.48 -30.36,8.01 -47.35,11.33 -51.02,10 -3.32,1.68 -20.16,-1.64 -50.51,-10 -2.65,-1.64 -8.83,-3.67 -18.47,-5.97 l 4.49,-82.04 c -9.34,-1.32 -18.67,-2.96 -28.01,-5 -12.34,-2.65 -25,-5.97 -38.01,-10 -5,-1.64 -10,-3.47 -15,-5.46 -3.98,1.32 -20.66,-7.5 -50,-26.532 -28.978,-18.668 -46.478,-54.136 -52.502,-106.476 l 0,-6.532 c -3.316,-3.32 0,-20.46 10,-51.48 10,-31.02 46.372,-55.352 109.032,-73.012 16.64,-5 33.47,-9.488 50.5,-13.468 8.32,-1.68 16.64,-3.52 25,-5.508 l 6.49,-1.024 3.98,-68.976 -6.48,0 -16.99,-1.992 c -11.68,-1.372 -24.18,-5.2 -37.5,-11.532 -7,-3.008 -14.03,-7.5 -21.02,-13.468 -7.34,-5.668 -13.67,-13.168 -18.98,-22.5 -5.36,-9.34 -8.68,-18.872 -10,-28.52 -1.33,-7.66 -1.68,-15 -1.02,-21.988 l 0,-1.024 c 0,-1.988 0.16,-3.828 0.51,-5.508 0.66,-7.3 2.34,-13.32 5,-17.96 4.65,-9.34 9.33,-16.02 13.98,-20 l 3.52,-3.52 3.51,-2.5 c 2,-1.68 3.99,-3.16 5.98,-4.488 1.99,-1.024 4.02,-1.992 6.02,-3.012 1.64,-1.02 3.47,-1.988 5.5,-3.012 7,-3.008 13.48,-5.508 19.5,-7.5 5.97,-1.636 11.83,-3.16 17.5,-4.488 5.66,-1.02 11.17,-1.988 16.48,-3.012 5.66,-0.968 11.17,-1.828 16.52,-2.5 2.66,-0.308 5.32,-0.66 7.97,-0.968 l 1.02,-18.52 c -8.32,-1.988 -16.68,-4.488 -25,-7.5 -11.02,-3.98 -22.15,-9.84 -33.52,-17.5 -5.97,-3.98 -11.83,-8.98 -17.5,-15 -2.65,-3.32 -5.31,-6.988 -7.97,-11.02 -1.36,-1.992 -2.69,-4.14 -4.02,-6.48 -0.31,-1.328 -0.82,-2.66 -1.48,-3.98 l -1.02,-1.532 0,-0.968 -0.98,-2.5 c -1.01,-3.36 -1.68,-6.372 -2.03,-9.032 -0.66,-2.648 -0.97,-5.148 -0.97,-7.5 -0.36,-5 -0.16,-9.84 0.5,-14.488 1.64,-9.34 4.34,-17.852 7.97,-25.512 8.36,-14.328 18.01,-25.308 29.03,-33.008 10.66,-7.3 21.32,-13.16 31.99,-17.5 10.66,-4.332 21.17,-7.96 31.48,-10.968 1.37,-0.352 2.7,-0.672 4.03,-1.024 l 4.49,-75.968 c -1.33,-1.02 -2.5,-2.192 -3.52,-3.52 -3.32,-3.672 -6.33,-7.5 -8.98,-11.48 -5.67,-7.7 -10.16,-16.372 -13.52,-26.02 -3.63,-10 -4.8,-20.512 -3.47,-31.48 1.32,-11.02 5,-20.86 10.97,-29.54 6.02,-8.32 12.7,-15.3081 20,-20.9683 2.03,-1.332 3.87,-2.6601 5.51,-4.0312 l 1.99,-34.4922 c 0.67,-5.3086 3.67,-8.3164 9.03,-8.9766 5.97,0.3086 9.49,3.3164 10.5,8.9766 l 0.98,21.5312 c 6.33,-3.3593 12.85,-6.1797 19.49,-8.5195 4.03,-1.6797 8.01,-3.1602 12.03,-4.4883 4.34,-1.332 8.48,-2.6601 12.5,-4.0312 5.67,-0.9688 9.81,1.0195 12.5,6.0195 1.64,6.0195 -0.35,10.3516 -6.01,13.0117 -15.35,5.9688 -29.85,13.0078 -43.52,20.9688 -1.64,1.3711 -3.47,2.6992 -5.47,4.0312 l 5.98,100.5083 c 5.35,5.308 10.35,10.968 15,16.992 7.34,8.316 13.36,18.668 18.01,30.968 2.34,6.372 3.51,13.36 3.51,21.02 0,7.66 -1.83,15.16 -5.5,22.5 -3.36,7.34 -7.86,13.32 -13.52,18.012 -2.66,2.34 -5.31,4.488 -8.01,6.476 -0.97,0.672 -1.99,1.332 -2.97,1.992 l 5.98,103.008 c 5.35,1.684 11.02,3.172 16.99,4.492 4.34,0.668 8.87,1.372 13.52,2.04 l 3.51,0.46 2.5,0.508 0.47,0 1.53,0.512 3,0.512 5.98,1.988 c 1.99,0.66 4.02,1.48 6.02,2.5 8,3.32 15.15,8.32 21.48,15 3.36,3.32 6.33,6.84 9.02,10.512 0.98,1.988 2.15,3.976 3.48,5.968 0.66,1.02 1.17,2.192 1.52,3.52 l 0.98,1.988 0.51,1.024 0,0.508 0.51,1.48 c 0.31,0.66 0.66,1.328 0.97,1.988 l 0,0.512 c 1.37,5.352 1.84,11.172 1.53,17.5 -0.36,6.328 -1.84,12.5 -4.5,18.52 -2.69,5.66 -5.86,10.46 -9.53,14.492 -3.63,3.976 -7.3,7.148 -10.97,9.488 -7,5.352 -13.68,9.18 -20,11.48 -6.33,2.7 -12.66,4.692 -19.03,6.02 -1.64,0.66 -3.16,1.172 -4.49,1.48 l -2.5,0.508 -1.48,0 -1.02,0.512 -1.99,0 -6.99,1.02 c -1.02,0.308 -2.19,0.66 -3.52,0.968 l 0.51,10.512 c 8.32,0 16.83,0.16 25.51,0.512 17.65,0.66 35.66,2.5 53.98,5.508 18.36,2.652 37.5,7.5 57.5,14.492 9.69,3.976 20,9.136 31.02,15.508 5.31,3.628 10.97,7.96 16.99,12.96 2.65,2.7 5.66,6.02 8.98,10 1.37,1.68 3.17,4.18 5.51,7.5 l 1.02,2.04 0.97,1.48 1.02,1.988 0.51,1.532 1.48,3.468 c 2.66,6.684 4.69,13.012 6.02,19.032 1.64,6.64 2.65,13.32 3,20 1.33,13.32 0,27.3 -4.02,41.992 -4.34,14.648 -10.98,27.808 -20,39.488 -9.34,11.328 -19.34,20.352 -30,26.988 -21.33,13.012 -41.84,21.532 -61.48,25.512 -9.69,2.34 -19.34,4.18 -29.03,5.512 -2.3,0.308 -4.65,0.66 -6.99,0.968 l -3.98,0.508 -3.01,0.512 -12.5,1.02 c -7.66,0.968 -15.35,1.832 -23.01,2.5 l -4.49,0.968 6.48,116.024 c 20,0.968 40,1.636 60,1.988 l 47.5,0 3.01,0.512 6.02,0.508 c 6.99,0.66 14.14,1.64 21.48,2.96 13.67,2.7 27.66,6.68 41.99,12.04 14.34,5.308 28.52,12.808 42.5,22.5 14.03,9.64 26.68,22.3 38.01,37.96 10.66,16.02 18.01,33.17 21.99,51.53 0.67,4.65 1.37,9.14 2.03,13.47 0.32,2.04 0.47,4.18 0.47,6.53 l 0.51,3.98 0,3.52 c 0.35,7.34 0.16,14.65 -0.51,21.99"
         inkscape:connector-curvature="0"
         id="path46"
         style="fill:#4a6199;fill-opacity:1;fill-rule:evenodd;stroke:none" /><path
         d="m 1650.16,683.012 0,280 130.31,0 c 29.69,0 52.26,-6.492 67.81,-19.383 15.51,-12.93 23.28,-31.828 23.28,-56.719 0,-24.488 -8.08,-43.672 -24.22,-57.5 -4.06,-3.43 -8.43,-6.48 -13.12,-9.058 l 6.25,-3.122 c 16.95,-9.808 25.78,-26.21 26.41,-49.218 l 1.56,-51.102 c 0.31,-8.359 1.4,-14.371 3.28,-18.121 1.87,-3.668 5.51,-6.84 10.94,-9.527 l 0,-6.102 -46.57,0 c -1.05,2.27 -2.11,8.211 -3.12,17.82 -0.94,9.68 -1.68,20.469 -2.19,32.34 l -0.78,22.032 c -0.55,17.378 -4.8,29.769 -12.81,37.187 -8.05,7.5 -21.1,11.25 -39.22,11.25 l -89.85,0 0,-120.777 -37.96,0 z m 37.96,153.437 93.76,0 c 17.5,0 30.31,3.821 38.43,11.563 8.13,7.687 12.19,19.84 12.19,36.398 0,16.141 -4.34,27.969 -12.97,35.469 -8.55,7.5 -22.11,11.25 -40.62,11.25 l -90.79,0 0,-94.68 z m 241.45,-153.437 0,280 204.69,0 0,-33.602 -166.88,0 0,-85.461 152.35,0 0,-33.597 -152.35,0 0,-93.75 168.91,0 0,-33.59 -206.72,0 z m 425.59,198.75 c -1.68,17.687 -8.68,31.328 -20.94,40.937 -12.19,9.571 -28.67,14.371 -49.38,14.371 -21.25,0 -37.42,-4.179 -48.43,-12.5 -11.06,-8.242 -16.57,-20.269 -16.57,-36.09 0,-10.859 3.64,-18.91 10.94,-24.218 7.38,-5.313 22.19,-10.59 44.38,-15.782 l 48.75,-11.57 c 26.13,-6.25 44.84,-15.461 56.09,-27.648 11.13,-12.114 16.72,-29.184 16.72,-51.25 0,-25.434 -9.65,-45.59 -28.91,-60.473 -19.18,-14.769 -45.23,-22.187 -78.12,-22.187 -36.57,0 -65.16,8.597 -85.78,25.777 -20,16.883 -30,39.922 -30,69.223 l 0,2.187 34.84,0 c 0.63,-20.309 7.97,-36.019 22.03,-47.027 14.14,-11.063 33.79,-16.563 58.91,-16.563 23.2,0 40.82,3.942 52.81,11.871 12.07,8.008 18.12,19.77 18.12,35.309 0,13.441 -3.98,23.359 -11.87,29.851 -7.93,6.321 -23.83,12.379 -47.66,18.122 l -48.75,11.558 c -24.61,5.942 -42.18,14.07 -52.81,24.379 -10.55,10.391 -15.78,24.84 -15.78,43.281 0,26.758 9.1,47.969 27.34,63.59 18.21,15.711 42.82,23.602 73.75,23.602 31.57,0 56.64,-7.891 75.32,-23.602 18.63,-15.738 28.59,-37.461 29.84,-65.148 l -34.84,0 z m 323.39,-95.782 c -4.8,-34.5 -18.04,-61.57 -39.68,-81.25 -21.68,-19.609 -49.07,-29.378 -82.19,-29.378 -38.56,0 -69.3,13.277 -92.19,39.847 -22.93,26.641 -34.37,62.531 -34.37,107.653 0,45 11.87,80.82 35.62,107.5 23.83,26.757 55.82,40.16 95.94,40.16 31.56,0 57.5,-8.133 77.81,-24.383 20.31,-16.25 32.5,-38.668 36.56,-67.18 l -36.56,0 c -3.55,18.512 -12.15,32.852 -25.78,42.961 -13.67,10.078 -31.21,15.16 -52.66,15.16 -28.04,0 -50.39,-10.308 -67.03,-30.941 -16.56,-20.617 -24.84,-48.399 -24.84,-83.277 0,-37.114 7.7,-65.391 23.12,-84.84 15.4,-19.383 37.74,-29.063 67.04,-29.063 21.75,0 39.76,6.641 54.06,20 14.37,13.43 23.9,32.422 28.59,57.031 l 36.56,0 z m 264.93,-0.32 c 0,-34.609 -9.77,-61.64 -29.22,-81.09 -19.38,-19.492 -46.37,-29.218 -80.94,-29.218 -35.94,0 -63.36,9.378 -82.19,28.128 -18.75,18.75 -28.12,46.129 -28.12,82.18 l 0,177.352 37.97,0 0,-174.532 c 0,-26.058 6.13,-45.859 18.43,-59.378 12.27,-13.442 30.24,-20.153 53.91,-20.153 23.63,0 41.56,6.711 53.75,20.153 12.27,13.519 18.44,33.32 18.44,59.378 l 0,174.532 37.97,0 0,-177.352 z m 61.64,-102.648 0,280 204.68,0 0,-33.602 -166.87,0 0,-85.461 152.34,0 0,-33.597 -152.34,0 0,-93.75 168.91,0 0,-33.59 -206.72,0 z m 362.89,0 0,280 37.81,0 0,-114.852 146.09,0 0,114.852 37.82,0 0,-280 -37.82,0 0,131.558 -146.09,0 0,-131.558 -37.81,0 z m 283.36,0 0,280 130.31,0 c 29.69,0 52.27,-6.492 67.81,-19.383 15.51,-12.93 23.28,-31.828 23.28,-56.719 0,-24.488 -8.08,-43.672 -24.22,-57.5 -4.06,-3.43 -8.43,-6.48 -13.12,-9.058 l 6.25,-3.122 c 16.95,-9.808 25.78,-26.21 26.41,-49.218 l 1.56,-51.102 c 0.31,-8.359 1.4,-14.371 3.28,-18.121 1.87,-3.668 5.51,-6.84 10.94,-9.527 l 0,-6.102 -46.57,0 c -1.05,2.27 -2.1,8.211 -3.12,17.82 -0.94,9.68 -1.68,20.469 -2.19,32.34 l -0.78,22.032 c -0.55,17.378 -4.8,29.769 -12.81,37.187 -8.05,7.5 -21.1,11.25 -39.22,11.25 l -89.84,0 0,-120.777 -37.97,0 z m 37.97,153.437 93.75,0 c 17.5,0 30.31,3.821 38.43,11.563 8.13,7.687 12.19,19.84 12.19,36.398 0,16.141 -4.33,27.969 -12.97,35.469 -8.55,7.5 -22.11,11.25 -40.62,11.25 l -90.78,0"
         inkscape:connector-curvature="0"
         id="path48"
         style="fill:#a0232b;fill-opacity:1;fill-rule:nonzero;stroke:none" /><path
         d="m 2031.99,288.52 c -24.49,0 -43.98,9.101 -58.44,27.339 -14.49,18.321 -21.71,43.051 -21.71,74.219 0,27.5 6.95,49.613 20.93,66.402 14.07,16.879 32.35,25.321 54.85,25.321 22.5,0 40.31,-9.5 53.43,-28.442 l 2.35,-3.437 0,94.848 30.78,0 0,-251.25 -28.59,0 0,25 -3.91,-5.629 c -12.62,-16.25 -29.18,-24.371 -49.69,-24.371 z m 1.72,165.621 c -17.19,0 -29.8,-5.551 -37.81,-16.563 -8.05,-10.937 -12.03,-28.398 -12.03,-52.348 0,-22.5 4.29,-39.839 12.97,-52.031 8.63,-12.179 20.93,-18.277 36.87,-18.277 14.88,0 26.88,5.547 35.94,16.719 9.14,11.25 13.75,26.089 13.75,44.531 0,25 -4.34,44.219 -12.97,57.656 -8.55,13.512 -20.78,20.313 -36.72,20.313 z m 131.09,-123.59 36.57,0 0,-37.031 -36.57,0 0,37.031 z m 159.11,-42.031 c -24.5,0 -43.99,9.101 -58.44,27.339 -14.49,18.321 -21.72,43.051 -21.72,74.219 0,27.5 6.95,49.613 20.94,66.402 14.06,16.879 32.34,25.321 54.84,25.321 22.5,0 40.31,-9.5 53.44,-28.442 l 2.34,-3.437 0,94.848 30.78,0 0,-251.25 -28.59,0 0,25 -3.91,-5.629 c -12.61,-16.25 -29.18,-24.371 -49.68,-24.371 z m 1.71,165.621 c -17.18,0 -29.8,-5.551 -37.81,-16.563 -8.04,-10.937 -12.03,-28.398 -12.03,-52.348 0,-22.5 4.3,-39.839 12.97,-52.031 8.63,-12.179 20.94,-18.277 36.87,-18.277 14.89,0 26.88,5.547 35.94,16.719 9.14,11.25 13.75,26.089 13.75,44.531 0,25 -4.33,44.219 -12.97,57.656 -8.55,13.512 -20.78,20.313 -36.72,20.313 z m 155.12,22.187 0,-117.808 c 0,-15.43 2.97,-26.532 8.91,-33.29 5.94,-6.789 15.55,-10.152 28.9,-10.152 14.77,0 26.49,5.703 35.16,17.192 8.63,11.441 12.97,26.949 12.97,46.558 l 0,97.5 30.78,0 0,-182.808 -29.22,0 0,27.808 c -2.11,-3.238 -4.37,-6.367 -6.87,-9.379 -13.13,-15.621 -29.53,-23.429 -49.22,-23.429 -20.74,0 -36.33,5.152 -46.72,15.46 -10.31,10.399 -15.47,25.981 -15.47,46.719 l 0,125.629 30.78,0 z m 160.63,68.442 30.78,0 0,-92.192 c 13.44,19.762 30.82,29.531 52.19,29.223 23.82,0 42.73,-8.25 56.71,-24.692 13.95,-16.488 20.94,-38.711 20.94,-66.718 0,-31.801 -7.03,-56.719 -21.09,-74.84 -14.06,-18.051 -33.56,-27.031 -58.44,-27.031 -20.62,0 -37.03,7.89 -49.22,23.75 l -2.97,3.75 0,-22.5 -28.9,0 0,251.25 z m 79.53,-229.54 c 16.01,0 28.2,6.02 36.56,18.129 8.32,12.192 12.5,29.879 12.5,53.121 0,22.899 -4.02,39.848 -12.03,50.79 -7.93,11.011 -20.23,16.558 -36.88,16.558 -16.99,0 -29.37,-6.207 -37.18,-18.598 -7.82,-12.421 -11.72,-32.109 -11.72,-59.058 0,-19.492 4.22,-34.492 12.65,-45 8.44,-10.621 20.47,-15.942 36.1,-15.942 z m 110.27,90.942 85.94,0 0,-31.723 -85.94,0 0,31.723 z m 229.1,17.187 c -0.93,10.192 -5.11,18.051 -12.5,23.59 -7.3,5.629 -17.15,8.442 -29.53,8.442 -12.81,0 -22.58,-2.27 -29.22,-6.719 -6.68,-4.492 -10,-11.012 -10,-19.531 0,-6.481 2.35,-11.371 7.03,-14.692 4.69,-3.238 13.99,-6.519 27.97,-9.84 l 31.72,-7.5 c 17.81,-4.379 30.51,-10.39 38.13,-17.968 7.5,-7.5 11.25,-18.051 11.25,-31.563 0,-18.129 -6.53,-32.5 -19.53,-43.129 -13.05,-10.621 -30.71,-15.929 -52.97,-15.929 -25.74,0 -44.96,5.07 -57.66,15.308 -12.62,10.192 -19.61,26.25 -20.94,48.121 l 29.53,0 c 1.57,-13.039 6.14,-22.461 13.75,-28.277 7.7,-5.742 19.46,-8.594 35.32,-8.594 13.83,0 24.29,2.582 31.4,7.813 7.07,5.199 10.63,12.847 10.63,22.968 0,6.332 -2.31,11.172 -6.88,14.532 -4.68,3.199 -14.14,6.488 -28.28,9.839 l -31.72,7.5 c -17.3,4.149 -29.61,9.93 -36.87,17.348 -7.31,7.262 -10.94,17.543 -10.94,30.781 0,17.192 6.13,30.782 18.44,40.782 12.26,10.078 28.9,15.16 49.84,15.16 21.25,0 38.17,-5.242 50.78,-15.629 12.58,-10.313 19.3,-24.613 20.16,-42.813 l -28.91,0 z m 218.6,52.969 -69.53,-188.75 c -10.75,-28.129 -20.32,-46.488 -28.75,-55.156 -8.36,-8.75 -20.9,-13.121 -37.66,-13.121 -5.43,-0.082 -10.39,0.539 -14.84,1.871 l 0,28.598 c 4.68,-1.649 10.54,-2.579 17.65,-2.821 6.96,0 12.74,2.891 17.35,8.602 4.68,5.738 10,16.398 15.93,32.027 l 0.47,2.813 -67.81,185.937 35,0 48.91,-151.25 49.53,151.25 33.75,0 z m 131.4,-52.969 c -0.93,10.192 -5.11,18.051 -12.5,23.59 -7.3,5.629 -17.15,8.442 -29.53,8.442 -12.81,0 -22.58,-2.27 -29.22,-6.719 -6.68,-4.492 -10,-11.012 -10,-19.531 0,-6.481 2.35,-11.371 7.03,-14.692 4.69,-3.238 13.99,-6.519 27.97,-9.84 l 31.72,-7.5 c 17.81,-4.379 30.51,-10.39 38.13,-17.968 7.5,-7.5 11.25,-18.051 11.25,-31.563 0,-18.129 -6.53,-32.5 -19.53,-43.129 -13.05,-10.621 -30.71,-15.929 -52.97,-15.929 -25.74,0 -44.96,5.07 -57.66,15.308 -12.62,10.192 -19.61,26.25 -20.94,48.121 l 29.53,0 c 1.57,-13.039 6.14,-22.461 13.75,-28.277 7.7,-5.742 19.46,-8.594 35.32,-8.594 13.83,0 24.29,2.582 31.4,7.813 7.07,5.199 10.63,12.847 10.63,22.968 0,6.332 -2.31,11.172 -6.88,14.532 -4.68,3.199 -14.14,6.488 -28.28,9.839 l -31.72,7.5 c -17.3,4.149 -29.61,9.93 -36.87,17.348 -7.31,7.262 -10.94,17.543 -10.94,30.781 0,17.192 6.13,30.782 18.44,40.782 12.26,10.078 28.9,15.16 49.84,15.16 21.25,0 38.17,-5.242 50.78,-15.629 12.58,-10.313 19.3,-24.613 20.16,-42.813 l -28.91,0 z m 137.35,-129.687 c -10.43,-1.563 -18.05,-2.344 -22.82,-2.344 -13.43,0 -22.92,2.973 -28.43,8.902 -5.55,5.942 -8.28,16.098 -8.28,30.469 l 0,120.629 -25.32,0 0,25 25.32,0 0,51.25 30.62,0 0,-51.25 28.91,0 0,-25 -28.91,0 0,-120.629 c 0,-4.058 1.6,-7.301 4.84,-9.679 3.33,-2.43 7.7,-3.598 13.13,-3.598 l 10.94,0 0,-23.75 z m 104.41,-5.152 c -25.86,0 -46.17,8.16 -60.94,24.531 -14.8,16.437 -22.18,39.14 -22.18,68.121 0,30.707 7.81,55.156 23.43,73.277 15.63,18.211 36.64,27.352 63.13,27.352 23.94,0 43.28,-8.91 57.97,-26.723 14.68,-17.738 22.03,-41.058 22.03,-70 l -0.31,-10.937 -133.6,0 c 1.25,-18.243 5.35,-32.153 12.35,-41.719 8.75,-11.563 22.42,-17.344 41.09,-17.344 11.76,0 22.03,3.281 30.78,9.844 8.75,6.637 14.1,15.078 16.1,25.308 l 30.31,0 c -4.49,-20 -13.6,-35.308 -27.35,-45.929 -13.67,-10.551 -31.25,-15.781 -52.81,-15.781 z m 51.25,110.46 c -0.86,16.961 -5,30.2 -12.5,39.692 -8.36,10.387 -20.58,15.629 -36.72,15.629 -16.17,0 -29.06,-6.063 -38.75,-18.129 -7.61,-9.371 -12.19,-21.793 -13.75,-37.192 l 101.72,0 z m 69.02,-105.46 0,182.808 29.38,0 0,-27.187 6.25,8.281 c 13.75,16.25 30.19,24.379 49.37,24.379 16.45,0 29.54,-4.852 39.22,-14.531 4.26,-4.301 7.58,-9.219 10,-14.848 l 5,6.406 c 13.21,15.313 28.99,22.973 47.35,22.973 19.14,0 33.94,-5.242 44.37,-15.629 10.39,-10.434 15.63,-25.231 15.63,-44.371 l 0,-128.281 -30.78,0 0,117.96 c 0,13.829 -2.89,24.379 -8.6,31.571 -5.74,7.179 -14.06,10.777 -25,10.777 -13.36,0 -23.9,-5.238 -31.72,-15.629 -7.81,-10.308 -11.72,-24.328 -11.72,-42.027 l 0,-102.652 -30.78,0 0,125.308 c 0,11.332 -2.61,20 -7.81,25.942 -5.23,6.011 -12.77,9.058 -22.66,9.058 -13.67,0 -24.84,-5.859 -33.59,-17.5 -8.75,-11.558 -13.12,-26.527 -13.12,-44.848 l 0,-97.96 -30.79,0 z m 396.76,129.839 c -0.94,10.192 -5.11,18.051 -12.5,23.59 -7.3,5.629 -17.15,8.442 -29.53,8.442 -12.81,0 -22.58,-2.27 -29.22,-6.719 -6.68,-4.492 -10,-11.012 -10,-19.531 0,-6.481 2.35,-11.371 7.03,-14.692 4.69,-3.238 13.99,-6.519 27.97,-9.84 l 31.72,-7.5 c 17.81,-4.379 30.51,-10.39 38.13,-17.968 7.5,-7.5 11.25,-18.051 11.25,-31.563 0,-18.129 -6.53,-32.5 -19.53,-43.129 -13.05,-10.621 -30.71,-15.929 -52.97,-15.929 -25.75,0 -44.96,5.07 -57.66,15.308 -12.62,10.192 -19.61,26.25 -20.94,48.121 l 29.53,0 c 1.57,-13.039 6.14,-22.461 13.75,-28.277 7.7,-5.742 19.46,-8.594 35.32,-8.594 13.82,0 24.29,2.582 31.4,7.813 7.07,5.199 10.63,12.847 10.63,22.968 0,6.332 -2.31,11.172 -6.88,14.532 -4.68,3.199 -14.14,6.488 -28.28,9.839 l -31.72,7.5 c -17.3,4.149 -29.61,9.93 -36.87,17.348 -7.31,7.262 -10.94,17.543 -10.94,30.781 0,17.192 6.13,30.782 18.44,40.782 12.26,10.078 28.9,15.16 49.84,15.16 21.25,0 38.17,-5.242 50.78,-15.629 12.58,-10.313 19.3,-24.613 20.16,-42.813"
         inkscape:connector-curvature="0"
         id="path50"
         style="fill:#256aa4;fill-opacity:1;fill-rule:nonzero;stroke:none" /></g></g></svg>